<svg width="1200" height="61" viewBox="0 0 1200 61" fill="none" xmlns="http://www.w3.org/2000/svg">
<rect width="1200" height="61" fill="#1E1E1E"/>
<g clip-path="url(#clip0_0_1)">
<path d="M1200 0H0V61H1200V0Z" fill="url(#paint0_linear_0_1)" fillOpacity="0.25"/>
<mask id="mask0_0_1" style="mask-type:alpha" maskUnits="userSpaceOnUse" x="0" y="0" width="1200" height="61">
<path d="M1200 0H0V61H1200V0Z" fill="#D9D9D9"/>
</mask>
<g mask="url(#mask0_0_1)">
<g filter="url(#filter0_f_0_1)">
<path d="M-12 81C-12 45.6537 218.573 17 503 17H696C980.427 17 1211 45.6537 1211 81H-12Z" fill="url(#paint1_linear_0_1)" fillOpacity="0.5"/>
</g>
</g>
<path fillRule="evenodd" clipRule="evenodd" d="M840.25 39.3333C834.7 32.7794 826.548 29 817.96 29H380.417C372.285 29 364.629 32.8283 359.75 39.3333C354.871 45.8383 347.215 49.6667 339.083 49.6667H5.16667C2.3132 49.6667 0 51.9799 0 54.8333C0 57.6868 2.31318 60 5.16665 60H1194.83C1197.69 60 1200 57.6868 1200 54.8333C1200 51.9799 1197.69 49.6667 1194.83 49.6667H862.54C853.952 49.6667 845.8 45.8872 840.25 39.3333Z" fill="url(#paint2_linear_0_1)" fillOpacity="0.8"/>
<path fillRule="evenodd" clipRule="evenodd" d="M840.25 40.9999C834.69 34.6451 826.656 30.9999 818.212 30.9999H380.152C372.171 30.9999 364.639 34.6918 359.75 40.9999C354.861 47.3081 347.329 50.9999 339.348 50.9999H5C4.99154 50.9999 4.98309 51 4.97464 51H0V55.9999V61H30H1170H1200V55.9999V51H1195.03L1195 50.9999H862.288C853.844 50.9999 845.81 47.3548 840.25 40.9999Z" fill="#070711"/>
</g>
<defs>
<filter id="filter0_f_0_1" x="-36.5" y="-7.5" width="1272" height="113" filterUnits="userSpaceOnUse" colorInterpolationFilters="sRGB">
<feFlood floodOpacity="0" result="BackgroundImageFix"/>
<feBlend mode="normal" in="SourceGraphic" in2="BackgroundImageFix" result="shape"/>
<feGaussianBlur stdDeviation="12.25" result="effect1_foregroundBlur_0_1"/>
</filter>
<linearGradient id="paint0_linear_0_1" x1="600" y1="0" x2="600" y2="61" gradientUnits="userSpaceOnUse">
<stop stopColor="#DD00AC" stopOpacity="0"/>
<stop offset="1" stopColor="#DD00AC" stopOpacity="0.15"/>
</linearGradient>
<linearGradient id="paint1_linear_0_1" x1="600.697" y1="17" x2="600.293" y2="81.005" gradientUnits="userSpaceOnUse">
<stop stopColor="#315BE6" stopOpacity="0.06"/>
<stop offset="1" stopColor="#315BE6"/>
</linearGradient>
<linearGradient id="paint2_linear_0_1" x1="0" y1="60.0007" x2="1200" y2="60.0008" gradientUnits="userSpaceOnUse">
<stop stopColor="#315BE6" stopOpacity="0"/>
<stop offset="0.09" stopColor="#315BE6" stopOpacity="0.697917"/>
<stop offset="0.5" stopColor="#315BE6" stopOpacity="0.760417"/>
<stop offset="0.666667" stopColor="#315BE6" stopOpacity="0.760417"/>
<stop offset="1" stopColor="#315BE6" stopOpacity="0"/>
</linearGradient>
<clipPath id="clip0_0_1">
<rect width="1200" height="61" fill="white"/>
</clipPath>
</defs>
</svg>
